<?xml version="1.0" encoding="UTF-8" standalone="no"?>
<!-- Created with Inkscape (http://www.inkscape.org/) -->

<svg
   width="184.25626mm"
   height="184.25626mm"
   viewBox="0 0 184.25626 184.25626"
   version="1.1"
   id="svg1"
   inkscape:version="1.3.2 (091e20e, 2023-11-25, custom)"
   sodipodi:docname="Versus pictogram color no bg.svg"
   xmlns:inkscape="http://www.inkscape.org/namespaces/inkscape"
   xmlns:sodipodi="http://sodipodi.sourceforge.net/DTD/sodipodi-0.dtd"
   xmlns="http://www.w3.org/2000/svg"
   xmlns:svg="http://www.w3.org/2000/svg"
   xmlns:rdf="http://www.w3.org/1999/02/22-rdf-syntax-ns#"
   xmlns:cc="http://creativecommons.org/ns#"
   xmlns:dc="http://purl.org/dc/elements/1.1/">
  <title
     id="title1">Versus pictogram no background</title>
  <sodipodi:namedview
     id="namedview1"
     pagecolor="#505050"
     bordercolor="#eeeeee"
     borderopacity="1"
     inkscape:showpageshadow="0"
     inkscape:pageopacity="0"
     inkscape:pagecheckerboard="0"
     inkscape:deskcolor="#d1d1d1"
     inkscape:document-units="mm"
     inkscape:zoom="0.81323728"
     inkscape:cx="460.5052"
     inkscape:cy="368.2812"
     inkscape:window-width="2560"
     inkscape:window-height="1566"
     inkscape:window-x="-11"
     inkscape:window-y="-11"
     inkscape:window-maximized="1"
     inkscape:current-layer="layer1" />
  <defs
     id="defs1" />
  <g
     inkscape:label="Calque 1"
     inkscape:groupmode="layer"
     id="layer1"
     transform="translate(-12.400596,-56.98661)">
    <g
       id="g396"
       transform="matrix(0.70700672,0,0,0.70700672,-270.9834,661.26181)"
       style="stroke-width:1.41441">
      <g
         id="g395"
         style="stroke-width:1.41441">
        <path
           id="path37-8"
           style="font-weight:500;font-stretch:condensed;font-size:42.6667px;line-height:1.25;font-family:OSP-DIN;-inkscape-font-specification:'OSP-DIN Medium Condensed';font-variation-settings:normal;text-align:center;text-anchor:middle;white-space:pre;vector-effect:none;fill:#fe0013;fill-opacity:1;stroke:none;stroke-width:1.65099;stroke-linecap:round;stroke-linejoin:miter;stroke-miterlimit:4;stroke-dasharray:none;stroke-dashoffset:0;stroke-opacity:1;-inkscape-stroke:none;paint-order:markers fill stroke;stop-color:#000000;opacity:1;stop-opacity:1"
           inkscape:transform-center-x="4.6871755"
           inkscape:transform-center-y="-42.259997"
           d="m 467.86772,-778.35037 a 2.1309478,1.814624 0 0 0 -2.12502,1.9543 l 7.35295,80.9613 a 2.4870174,2.1178376 0 0 0 2.47957,1.955 h 25.31183 l -13.67593,70.2963 28.10385,-72.1564 31.58274,-81.1488 a 1.662276,1.415523 0 0 0 -1.57827,-1.8608 H 524.25 a 3.1696948,2.6991766 0 0 0 -3.01407,1.8639 l -22.86521,59.8566 a 0.466836,0.39753757 0 0 1 -0.90896,-0.089 l -6.01668,-59.6782 a 2.5082449,2.1359141 0 0 0 -2.49947,-1.9535 z m 11.62135,89.9048 -3.43984,17.6794 6.88506,-17.6794 z m 7.71746,0 -6.8797,35.3587 13.7686,-35.3587 z" />
        <path
           id="path36-1"
           style="font-weight:500;font-stretch:condensed;font-size:42.6667px;line-height:1.25;font-family:OSP-DIN;-inkscape-font-specification:'OSP-DIN Medium Condensed';font-variation-settings:normal;text-align:center;text-anchor:middle;white-space:pre;vector-effect:none;fill:#0958b7;fill-opacity:1;stroke:none;stroke-width:1.65099;stroke-linecap:round;stroke-linejoin:miter;stroke-miterlimit:4;stroke-dasharray:none;stroke-dashoffset:0;stroke-opacity:1;-inkscape-stroke:none;paint-order:markers fill stroke;stop-color:#000000;opacity:1;stop-opacity:1"
           inkscape:transform-center-x="11.831708"
           inkscape:transform-center-y="77.526948"
           d="m 575.03713,-825.59252 -32.80011,84.1094 c -0.29429,0.7221 -0.57784,1.4499 -0.79293,2.0048 l -3.24234,8.3637 c -0.3984,1.0277 -1.0806,2.7 -1.1758,3.7769 -0.28499,3.223 1.86035,6.02 4.10587,8.2856 0.82049,0.8278 2.22413,2.1162 3.08346,2.9153 l 13.01765,12.1045 c 0.85933,0.7991 2.28723,2.0819 2.94959,3.005 1.3379,1.8643 1.56442,3.7751 1.07616,5.8887 -0.24516,1.0614 -0.91759,2.7247 -1.31598,3.7523 l -1.24266,3.207 c -0.39841,1.0277 -1.02478,2.7042 -1.56728,3.6819 -1.28357,2.3133 -2.94007,3.571 -4.79583,4.0961 -1.20082,0.3397 -3.39344,0.4085 -4.48839,-0.1194 -1.24596,-0.6008 -1.7836,-1.876 -1.32942,-4.002 0.22734,-1.064 0.9061,-2.7269 1.3045,-3.7545 l 4.45525,-11.4928 a 1.6619959,1.4152735 0.26187468 0 0 -1.57994,-1.8608 h -21.62465 a 3.188782,2.7154088 0.26187453 0 0 -3.02386,1.8608 l -4.45604,11.4928 c -0.39839,1.0276 -1.05943,2.6914 -1.34662,3.7453 -3.48129,12.7758 12.6857,13.8939 23.81448,13.9861 1.27131,0.01 3.33243,0.01 4.60382,0 10.84541,-0.062 28.24551,-0.9602 34.73116,-13.9432 0.49711,-0.9951 1.13211,-2.6656 1.53052,-3.6933 l 5.00265,-12.9032 c 0.3984,-1.0277 1.07917,-2.6998 1.18499,-3.7761 0.31934,-3.248 -1.74321,-6.1055 -4.05388,-8.3354 -0.8416,-0.8122 -2.32423,-2.0348 -3.23257,-2.7935 l -9.9802,-8.3363 c -0.90835,-0.7587 -2.38517,-1.9858 -3.28993,-2.7476 -3.69505,-3.1111 -5.24908,-4.8082 -4.17952,-8.8048 0.28228,-1.0547 0.9513,-2.717 1.3497,-3.7446 0.38904,-1.0035 1.00647,-2.6605 1.54896,-3.6382 1.28357,-2.3132 2.94009,-3.5711 4.79584,-4.0962 1.20085,-0.3397 3.39344,-0.4084 4.48841,0.1195 1.24596,0.6008 1.78437,1.876 1.33017,4.002 -0.22733,1.0641 -0.90684,2.7277 -1.30525,3.7553 l -2.73385,7.0513 a 1.6619958,1.4152733 0.26187453 0 0 1.58148,1.8608 h 21.62388 a 3.1887857,2.7154119 0.26187449 0 0 3.02311,-1.8608 l 2.7346,-7.0513 c 0.39839,-1.0276 1.05943,-2.6922 1.34662,-3.7462 3.48127,-12.7757 -12.68491,-13.8937 -23.81369,-13.986 -1.27136,-0.01 -3.33325,-0.01 -4.60459,0 -4.64438,0.032 -10.49453,0.2394 -16.17669,1.4748 z m 6.93405,28.7157 -13.70734,35.3588 h 6.88964 z m 4.30822,17.6794 -6.85442,17.6794 h 3.4452 z" />
      </g>
    </g>
  </g>
  <metadata
     id="metadata1">
    <rdf:RDF>
      <cc:Work
         rdf:about="">
        <dc:title>Versus pictogram no background</dc:title>
        <dc:creator>
          <cc:Agent>
            <dc:title>m1981</dc:title>
          </cc:Agent>
        </dc:creator>
        <dc:rights>
          <cc:Agent>
            <dc:title>Public domain</dc:title>
          </cc:Agent>
        </dc:rights>
        <dc:publisher>
          <cc:Agent>
            <dc:title>Inkscape</dc:title>
          </cc:Agent>
        </dc:publisher>
        <dc:date>2024-09-01</dc:date>
        <dc:subject>
          <rdf:Bag>
            <rdf:li>versus</rdf:li>
            <rdf:li>vs</rdf:li>
            <rdf:li>videogame</rdf:li>
            <rdf:li>challenge</rdf:li>
            <rdf:li>contest</rdf:li>
            <rdf:li>opposition</rdf:li>
            <rdf:li>sport</rdf:li>
          </rdf:Bag>
        </dc:subject>
        <dc:description>A versus pictogram</dc:description>
        <cc:license
           rdf:resource="http://creativecommons.org/publicdomain/zero/1.0/" />
      </cc:Work>
      <cc:License
         rdf:about="http://creativecommons.org/publicdomain/zero/1.0/">
        <cc:permits
           rdf:resource="http://creativecommons.org/ns#Reproduction" />
        <cc:permits
           rdf:resource="http://creativecommons.org/ns#Distribution" />
        <cc:permits
           rdf:resource="http://creativecommons.org/ns#DerivativeWorks" />
      </cc:License>
    </rdf:RDF>
  </metadata>
</svg>
